<svg id="Capa_1" enable-background="new 0 0 512 512" height="512" viewBox="0 0 512 512" width="512" xmlns="http://www.w3.org/2000/svg"><g><path d="m81 113h174c0-18.534 0-77.168 0-98 0-8.284-6.716-15-15-15h-144c-8.284 0-15 6.716-15 15z"/><path d="m365 209h147v-19c0-24.813-20.187-45-45-45h-102z"/><path d="m95 207h146v42h-146z"/><path d="m365 239v128h102c24.813 0 45-20.187 45-45v-83z"/><path d="m335 64c0-8.284-6.716-15-15-15h-35v64h3c8.28 0 15 6.72 15 15s-6.72 15-15 15c-13.495 0-228.392 0-240 0-8.28 0-15-6.72-15-15s6.72-15 15-15h3v-64h-36c-8.284 0-15 6.716-15 15v433c0 8.284 6.716 15 15 15h305c8.284 0 15-6.716 15-15 0-10.815 0-395.691 0-433zm-239 391h-16c-8.284 0-15-6.716-15-15s6.716-15 15-15h16c8.284 0 15 6.716 15 15s-6.716 15-15 15zm0-56h-16c-8.284 0-15-6.716-15-15s6.716-15 15-15h16c8.284 0 15 6.716 15 15s-6.716 15-15 15zm0-56h-16c-8.284 0-15-6.716-15-15s6.716-15 15-15h16c8.284 0 15 6.716 15 15s-6.716 15-15 15zm80 112h-16c-8.284 0-15-6.716-15-15s6.716-15 15-15h16c8.284 0 15 6.716 15 15s-6.716 15-15 15zm0-56h-16c-8.284 0-15-6.716-15-15s6.716-15 15-15h16c8.284 0 15 6.716 15 15s-6.716 15-15 15zm0-56h-16c-8.284 0-15-6.716-15-15s6.716-15 15-15h16c8.284 0 15 6.716 15 15s-6.716 15-15 15zm80 112h-16c-8.284 0-15-6.716-15-15s6.716-15 15-15h16c8.284 0 15 6.716 15 15s-6.716 15-15 15zm0-56h-16c-8.284 0-15-6.716-15-15s6.716-15 15-15h16c8.284 0 15 6.716 15 15s-6.716 15-15 15zm0-56h-16c-8.284 0-15-6.716-15-15s6.716-15 15-15h16c8.284 0 15 6.716 15 15s-6.716 15-15 15zm15-79c0 8.284-6.716 15-15 15h-176c-8.284 0-15-6.716-15-15v-72c0-8.284 6.716-15 15-15h176c8.284 0 15 6.716 15 15z"/></g></svg>